<?xml version="1.0" standalone="no"?>
<!DOCTYPE svg PUBLIC "-//W3C//DTD SVG 20010904//EN"
 "http://www.w3.org/TR/2001/REC-SVG-20010904/DTD/svg10.dtd">
<svg version="1.0" xmlns="http://www.w3.org/2000/svg"
 width="512.000000pt" height="512.000000pt" viewBox="0 0 512.000000 512.000000"
 preserveAspectRatio="xMidYMid meet">

<g transform="translate(0.000000,512.000000) scale(0.100000,-0.100000)"
fill="#000000" stroke="none">
<path d="M1973 4710 c-17 -10 -37 -28 -42 -39 -7 -12 -11 -107 -11 -251 l0
-232 34 -34 c30 -30 40 -34 86 -34 109 0 120 28 120 306 0 232 -6 261 -65 288
-44 21 -83 20 -122 -4z"/>
<path d="M971 4292 c-70 -35 -94 -111 -54 -170 10 -15 84 -92 165 -169 158
-153 182 -166 251 -144 59 20 84 64 72 129 -5 30 -34 65 -158 191 -137 138
-191 181 -229 181 -7 0 -28 -8 -47 -18z"/>
<path d="M3025 4296 c-44 -20 -341 -325 -349 -358 -9 -40 17 -94 56 -118 37
-22 73 -25 115 -10 32 13 307 281 329 322 31 59 5 131 -59 161 -42 20 -53 20
-92 3z"/>
<path d="M1857 3889 c-196 -48 -381 -198 -475 -385 -53 -106 -67 -171 -67
-324 0 -125 3 -155 23 -214 40 -120 89 -202 175 -293 63 -67 87 -69 178 -10
37 23 74 47 84 52 12 8 22 41 36 124 21 122 62 259 105 343 105 208 284 388
492 496 45 24 82 47 82 53 0 37 -188 137 -307 163 -96 21 -229 19 -326 -5z"/>
<path d="M2770 3535 c-358 -80 -625 -345 -696 -691 -11 -53 -15 -113 -13 -196
l4 -119 -25 -5 c-151 -30 -247 -78 -340 -173 -74 -75 -130 -172 -155 -271 -23
-88 -16 -240 15 -329 48 -136 162 -266 289 -331 98 -49 156 -61 317 -67 167
-6 205 1 246 45 14 15 122 225 239 466 236 486 253 511 366 564 47 22 72 27
133 27 96 0 170 -35 240 -112 73 -80 90 -135 90 -296 0 -173 7 -187 120 -244
45 -22 95 -54 111 -69 48 -46 88 -139 98 -227 10 -90 31 -121 92 -137 70 -19
259 32 376 101 130 77 259 230 317 373 60 150 70 347 25 494 -40 130 -95 219
-199 322 -149 149 -291 214 -517 234 l-124 11 -32 85 c-48 127 -100 204 -206
310 -125 124 -222 180 -387 226 -83 23 -300 28 -384 9z"/>
<path d="M573 3289 c-67 -20 -99 -100 -67 -166 33 -66 59 -73 292 -73 220 0
254 6 285 53 20 30 22 94 5 131 -25 56 -44 61 -273 63 -116 1 -224 -2 -242 -8z"/>
<path d="M1275 2539 c-39 -11 -352 -324 -360 -359 -12 -55 35 -125 91 -136 70
-13 91 1 251 159 83 82 157 163 164 178 18 44 4 93 -37 128 -19 17 -39 31 -44
31 -4 0 -14 2 -22 4 -7 2 -26 0 -43 -5z"/>
<path d="M3083 2190 c-27 -11 -11 20 -246 -465 -109 -225 -210 -432 -223 -459
-29 -61 -30 -86 -3 -120 20 -26 21 -26 165 -26 l144 0 0 -286 0 -286 30 -30
c27 -26 36 -30 67 -25 20 4 45 14 54 24 10 10 122 234 249 498 l232 480 -19
35 c-10 19 -29 37 -43 41 -14 4 -85 7 -157 8 l-133 1 0 285 0 286 -25 24 c-25
26 -54 30 -92 15z"/>
</g>
</svg>
